<svg width="60" height="22" viewBox="0 0 60 22" fill="none" xmlns="http://www.w3.org/2000/svg">
<path d="M2.60156 6.26953V15H0.761719V6.26953H2.60156ZM11.4258 6.26953V15H9.82617L6.03516 9.50977H5.96484V15H4.125V6.26953H5.74219L9.50977 11.7598H9.58594V6.26953H11.4258ZM14.4492 15H12.4688L15.4863 6.26953H17.8594L20.8711 15H18.8965L18.2461 13.0078H15.0938L14.4492 15ZM15.5625 11.5664H17.7773L16.7051 8.26172H16.6348L15.5625 11.5664ZM23.4141 15H21.4336L24.4512 6.26953H26.8242L29.8359 15H27.8613L27.2109 13.0078H24.0586L23.4141 15ZM24.5273 11.5664H26.7422L25.6699 8.26172H25.5996L24.5273 11.5664ZM30.8789 6.26953H33.1523L35.5547 12.1348H35.6543L38.0625 6.26953H40.3535V15H38.543V9.31641H38.4785L36.2109 14.959H34.9863L32.7422 9.30469H32.666V15H30.8789V6.26953ZM43.3711 15H41.3906L44.4082 6.26953H46.7812L49.793 15H47.8184L47.168 13.0078H44.0156L43.3711 15ZM44.4844 11.5664H46.6992L45.627 8.26172H45.5566L44.4844 11.5664Z" fill="black"/>
<path d="M52.859 13.4883L52.7152 13.0917L55.4914 12.085L55.6352 12.4816L52.859 13.4883ZM53.1466 14.2815L53.0028 13.8849L55.779 12.8782L55.9229 13.2748L53.1466 14.2815ZM53.4343 15.0747L53.2905 14.6781L56.0667 13.6714L56.2105 14.068L53.4343 15.0747ZM52.3622 4.69333L52.7588 4.54951L55.2038 11.2918L54.8072 11.4356L52.3622 4.69333ZM51.569 4.98097L51.9656 4.83715L54.4106 11.5794L54.014 11.7232L51.569 4.98097ZM50.7758 5.26861L51.1724 5.12479L53.6173 11.8671L53.2207 12.0109L50.7758 5.26861ZM49.9826 5.55625L50.3792 5.41243L52.8241 12.1547L52.4275 12.2985L49.9826 5.55625Z" fill="black"/>
</svg>
